<?xml version="1.0" encoding="UTF-8"?>
<svg version="1.1" viewBox="0 -256 1792 1792"
	xmlns="http://www.w3.org/2000/svg">
	<g transform="matrix(1 0 0 -1 75.932 1368.9)">
		<path d="m512 160v192q0 14-9 23t-23 9h-320q-14 0-23-9t-9-23v-192q0-14 9-23t23-9h320q14 0 23 9t9 23zm0 384v192q0 14-9 23t-23 9h-320q-14 0-23-9t-9-23v-192q0-14 9-23t23-9h320q14 0 23 9t9 23zm512-384v192q0 14-9 23t-23 9h-320q-14 0-23-9t-9-23v-192q0-14 9-23t23-9h320q14 0 23 9t9 23zm-512 768v192q0 14-9 23t-23 9h-320q-14 0-23-9t-9-23v-192q0-14 9-23t23-9h320q14 0 23 9t9 23zm512-384v192q0 14-9 23t-23 9h-320q-14 0-23-9t-9-23v-192q0-14 9-23t23-9h320q14 0 23 9t9 23zm512-384v192q0 14-9 23t-23 9h-320q-14 0-23-9t-9-23v-192q0-14 9-23t23-9h320q14 0 23 9t9 23zm-512 768v192q0 14-9 23t-23 9h-320q-14 0-23-9t-9-23v-192q0-14 9-23t23-9h320q14 0 23 9t9 23zm512-384v192q0 14-9 23t-23 9h-320q-14 0-23-9t-9-23v-192q0-14 9-23t23-9h320q14 0 23 9t9 23zm0 384v192q0 14-9 23t-23 9h-320q-14 0-23-9t-9-23v-192q0-14 9-23t23-9h320q14 0 23 9t9 23zm128 320v-1088q0-66-47-113t-113-47h-1344q-66 0-113 47t-47 113v1088q0 66 47 113t113 47h1344q66 0 113-47t47-113z" fill="currentColor"/>
	</g>
</svg>
